<?xml version="1.0" encoding="UTF-8"?><svg id="Calque_1" xmlns="http://www.w3.org/2000/svg" viewBox="0 0 530.2 525.12"><defs><style>.cls-1{fill:none;stroke:#000;stroke-miterlimit:10;}</style></defs><polygon class="cls-1" points="291.19 230.58 291.19 276.65 270.93 281.77 271.67 236.02 291.19 230.58"/><line class="cls-1" x1="101.63" y1="276.58" x2="101.63" y2="276.53"/><line class="cls-1" x1="99.38" y1="325.01" x2="99.19" y2="328.92"/><g><polygon class="cls-1" points="189.25 .91 185.37 185.73 183.88 256.94 182.88 303.97 180.33 425.26 99.19 448.3 99.38 325.01 100.61 324.71 99.38 325.01 101.63 276.58 103.03 276.21 101.63 276.53 104.92 206.02 109.08 50.98 189.25 .91"/><polyline class="cls-1" points="183.41 303.83 182.88 303.97 183.88 256.94"/><polygon class="cls-1" points="103.03 276.21 101.63 276.58 99.38 325.01 51.68 337.05 1.2 303.68 101.16 276.65 101.63 276.53 103.03 276.21"/><polygon class="cls-1" points="101.63 276.53 103.03 276.21 101.63 276.58 1.2 303.68 1.2 232.16 104.9 206.02 104.92 206.02 101.63 276.53"/><polygon class="cls-1" points="453.48 499.97 369.36 524.6 99.19 448.3 180.33 425.26 453.48 499.97"/><line class="cls-1" x1="180.33" y1="425.26" x2="182.88" y2="303.97"/><polygon class="cls-1" points="291.19 276.65 291.19 381.2 269.4 374.4 270.93 281.77 291.19 276.65"/><polyline class="cls-1" points="189.25 .91 529.7 90.71 529.7 188.46 459.19 173.16 459.43 159.84 376.29 137.59 338.82 147.04 273.37 132.83 272.86 163.66"/><polyline class="cls-1" points="271.67 236.02 270.93 281.77 269.4 374.4 291.19 381.2 349.57 399.41 371.34 406.2 375.46 183.05 375.97 155.1 376.29 137.59 459.43 159.84 459.19 173.16 458.75 198.79 456.43 498.73 180.33 425.26"/><polygon class="cls-1" points="376.29 137.59 375.97 155.1 375.46 183.05 371.34 406.2 349.57 399.41 291.19 381.2 291.19 230.58 271.67 236.02 272.86 163.66 338.82 147.04 376.29 137.59"/><polygon class="cls-1" points="291.19 230.58 291.19 276.65 270.93 281.77 271.67 236.02 291.19 230.58"/></g><line class="cls-1" x1="529.7" y1="188.46" x2="458.75" y2="198.79"/></svg>