<svg id="Calque_1" data-name="Calque 1" xmlns="http://www.w3.org/2000/svg" viewBox="0 0 131.24 119.03"><defs><style>.cls-1,.cls-2{fill:#fff;stroke:#010101;stroke-miterlimit:10;}.cls-2{opacity:0.1;}</style></defs><path class="cls-1" d="M111.66,124.51" transform="translate(-2.81 -4)"/><polygon class="cls-1" points="128.78 82 57.87 69.45 60.1 84.08 106.32 92.85 128.69 89.22 128.78 82"/><path class="cls-1" d="M106.34,96.66" transform="translate(-2.81 -4)"/><polygon class="cls-1" points="44.26 103.12 32.78 50.78 5.91 65.25 16.03 118.27 44.26 103.12"/><polygon class="cls-1" points="44.26 103.12 44.26 103.12 17.99 118.2 40.8 115.33 59.55 105.44 44.26 103.12"/><polyline class="cls-2" points="83.85 42.68 111.46 34.47 121.75 38 90.08 49.88 81.03 46.52 83.85 42.68 111.46 34.47"/><polygon class="cls-1" points="117.95 112.88 117.69 75.27 117.73 75.28 117.65 68.41 117.59 60.01 101.38 53.89 101.39 54.08 81.03 46.52 83.14 62.5 102.25 69.56 104.43 108.86 117.95 112.88"/><polygon class="cls-1" points="117.56 60.09 81.28 45.51 94.2 28.54 130.46 40.84 117.56 60.09"/><polygon class="cls-1" points="118.74 112.23 117.56 60.09 130.68 42.17 128.44 100.08 118.74 112.23"/><polygon class="cls-1" points="117.22 113 64.92 106.22 64.92 106.26 55.58 104.84 44.15 103.15 38.92 79.9 37.34 71.58 32.78 50.78 55.09 51.23 60.1 84.08 103.53 92.67 117.22 113"/><polygon class="cls-1" points="117.36 11.24 35.2 31.44 1.75 17.35 91.9 0.52 117.36 11.24"/><polygon class="cls-1" points="35.2 31.44 32.71 51.24 6.01 65.67 0.59 17.83 35.2 31.44"/><polygon class="cls-1" points="117.36 11.24 58.17 25.75 58.17 25.7 47.78 28.3 35.08 31.41 32.78 50.78 32.78 50.78 32.78 50.78 55.09 51.23 55.09 51.23 113.87 33.75 117.36 11.24"/></svg>